<svg id="Logo_CINEPLEX" data-name="Logo CINEPLEX" xmlns="http://www.w3.org/2000/svg" viewBox="0 0 400 97.75"><title>SI_FILMS-LOGO_CINEPLEX</title><rect x="76.59" y="31.43" width="11.17" height="33.81" rx="0.34" ry="0.34"/><rect x="108.33" y="31.43" width="33.14" height="33.81" rx="0.34" ry="0.34"/><path d="M97.65,60.25L97.49,37a0.43,0.43,0,0,1,.64-0.37l20.26,11.51a0.43,0.43,0,0,1,0,.74L98.3,60.62A0.43,0.43,0,0,1,97.65,60.25Z"/><path d="M175.57,42.12l-1.5,2.1a8,8,0,0,0-2.27-1.39,6.64,6.64,0,0,0-2.47-.49,5.75,5.75,0,0,0-3,.84,5.91,5.91,0,0,0-2.16,2.31,7.33,7.33,0,0,0,0,6.64,5.91,5.91,0,0,0,2.16,2.31,5.75,5.75,0,0,0,3,.82,7.38,7.38,0,0,0,5.1-2.25l1.47,2.17a9.26,9.26,0,0,1-11.15,1.59,8.61,8.61,0,0,1-3.26-3.27,9.35,9.35,0,0,1-1.19-4.71,9.23,9.23,0,0,1,1.2-4.69,8.7,8.7,0,0,1,3.27-3.27,9.5,9.5,0,0,1,8-.56A8.18,8.18,0,0,1,175.57,42.12Z"/><path d="M186.25,57.56V40.07h3v17.5h-3Z"/><path d="M212.57,57.56l-9-12.75V57.56h-3V40.07h3.15l8.85,12.5V40.07h3v17.5h-3Z"/><path d="M229.57,42.67v4.75h8.25v2.47h-8.25V55h9.5v2.6h-12.5V40.07h12.25v2.6h-9.25Z"/><path d="M261.64,42.52a5.2,5.2,0,0,1,0,5.46,5.13,5.13,0,0,1-2.11,1.8,7,7,0,0,1-3,.64h-4.22v7.15h-3V40.07h7.25a6.92,6.92,0,0,1,3,.64A5.1,5.1,0,0,1,261.64,42.52Zm-9.37,5.42h4.1a3.17,3.17,0,0,0,2.21-.74,2.79,2.79,0,0,0,0-3.94,3.2,3.2,0,0,0-2.21-.73h-4.1v5.4Z"/><path d="M284.14,55v2.6h-12V40.07h3V55h9Z"/><path d="M296.87,42.67v4.75h8.25v2.47h-8.25V55h9.5v2.6h-12.5V40.07h12.25v2.6h-9.25Z"/><path d="M331.22,57.56h-3.45l-4.4-6.72-4.5,6.72H315.4l6.12-8.9-6.12-8.6h3.47l4.47,6.47,4.37-6.47h3.45l-5.92,8.6Z"/></svg>